<?xml version="1.0" encoding="UTF-8"?>
<svg width="256" height="256" xmlns="http://www.w3.org/2000/svg" xmlns:svg="http://www.w3.org/2000/svg">
 <g>
  <title>L1</title>
  <rect x="2" y="2" rx="10" ry="10" height="244" width="252" stroke-width="4" stroke="#000000" fill="#74c7fb"/>
  <rect x="12" y="12" rx="8" ry="8" height="198" width="232" stroke-width="4" stroke="#000000" fill="#1ebdf1"/>
  <rect x="22" y="21" ry="6" rx="6" height="180" width="64" stroke-width="3" stroke="#000000" fill="#cccccc"/>
  <rect x="96" y="21" ry="6" rx="6" height="180" width="64" stroke-width="3" stroke="#000000" fill="#cccccc"/>
  <rect x="170" y="21" ry="6" rx="6" height="180" width="64" stroke-width="3" stroke="#000000" fill="#cccccc"/>
  <rect x="24" y="218" rx="4" ry="4" height="20" width="60" stroke-width="2" stroke="#000000" fill="#bf0000"/>
  <rect x="98" y="218" rx="4" ry="4" height="20" width="60" stroke-width="2" stroke="#000000" fill="#bf0000"/>
  <rect x="172" y="218" rx="4" ry="4" height="20" width="60" stroke-width="2" stroke="#000000" fill="#bf0000"/>
 </g>
 <g>
  <title>L2</title>
  <text fill="#cf0000" x="55" y="153" font-family="Monospace" text-anchor="middle" font-weight="bold" font-size="128">4</text>
  <text fill="#cf0000" x="128" y="153" font-family="Monospace" text-anchor="middle" font-weight="bold" font-size="128">1</text>
  <text fill="#cf0000" x="203" y="153" font-family="Monospace" text-anchor="middle" font-weight="bold" font-size="128">7</text>
  <path fill="#cc7f00" d="m33,30c22,27 42,0 42,0l-42,0z"/>
  <path fill="#cc7f00" d="m33,192c22,-27 42,0 42,0l-42,0z"/>
  <path fill="#cc7f00" d="m107,30c22,27 42,0 42,0l-42,0z"/>
  <path fill="#cc7f00" d="m107,192c22,-27 42,0 42,0l-42,0z"/>
  <path fill="#cc7f00" d="m181,30c22,27 42,0 42,0l-42,0z"/>
  <path fill="#cc7f00" d="m181,192c22,-27 42,0 42,0l-42,0z"/>
 </g>
</svg>